<svg xmlns="http://www.w3.org/2000/svg" xmlns:xlink="http://www.w3.org/1999/xlink" width="500" zoomAndPan="magnify" viewBox="0 0 375 374.999991" height="500" preserveAspectRatio="xMidYMid meet" version="1.0"><defs><g/><clipPath id="8e72da1af4"><path d="M 21.398438 149.082031 L 96 149.082031 L 96 225.582031 L 21.398438 225.582031 Z M 21.398438 149.082031 " clip-rule="nonzero"/></clipPath><clipPath id="056e21a32b"><path d="M 57 166 L 97.898438 166 L 97.898438 198 L 57 198 Z M 57 166 " clip-rule="nonzero"/></clipPath></defs><rect x="-37.5" width="450" fill="#ffffff" y="-37.499999" height="449.999989" fill-opacity="1"/><rect x="-37.5" width="450" fill="#ffffff" y="-37.499999" height="449.999989" fill-opacity="1"/><g fill="#1e0a3d" fill-opacity="1"><g transform="translate(117.323082, 196.499181)"><g><path d="M 10.203125 -19.671875 C 12.679688 -19.671875 14.710938 -19.171875 16.296875 -18.171875 C 17.890625 -17.171875 18.707031 -15.6875 18.75 -13.71875 L 18.75 -13.375 L 12.9375 -13.375 L 12.9375 -13.5 C 12.9375 -14.050781 12.726562 -14.515625 12.3125 -14.890625 C 11.894531 -15.265625 11.265625 -15.453125 10.421875 -15.453125 C 9.597656 -15.453125 8.96875 -15.332031 8.53125 -15.09375 C 8.09375 -14.851562 7.875 -14.550781 7.875 -14.1875 C 7.875 -13.6875 8.171875 -13.3125 8.765625 -13.0625 C 9.367188 -12.820312 10.335938 -12.570312 11.671875 -12.3125 C 13.222656 -11.988281 14.5 -11.65625 15.5 -11.3125 C 16.5 -10.96875 17.375 -10.398438 18.125 -9.609375 C 18.875 -8.828125 19.257812 -7.757812 19.28125 -6.40625 C 19.28125 -4.125 18.503906 -2.425781 16.953125 -1.3125 C 15.410156 -0.207031 13.347656 0.34375 10.765625 0.34375 C 7.742188 0.34375 5.394531 -0.160156 3.71875 -1.171875 C 2.039062 -2.191406 1.203125 -3.984375 1.203125 -6.546875 L 7.078125 -6.546875 C 7.078125 -5.578125 7.328125 -4.925781 7.828125 -4.59375 C 8.335938 -4.269531 9.128906 -4.109375 10.203125 -4.109375 C 10.992188 -4.109375 11.644531 -4.191406 12.15625 -4.359375 C 12.675781 -4.523438 12.9375 -4.867188 12.9375 -5.390625 C 12.9375 -5.859375 12.648438 -6.207031 12.078125 -6.4375 C 11.503906 -6.675781 10.570312 -6.929688 9.28125 -7.203125 C 7.707031 -7.535156 6.40625 -7.882812 5.375 -8.25 C 4.34375 -8.613281 3.441406 -9.21875 2.671875 -10.0625 C 1.898438 -10.90625 1.515625 -12.050781 1.515625 -13.5 C 1.515625 -15.613281 2.332031 -17.171875 3.96875 -18.171875 C 5.613281 -19.171875 7.691406 -19.671875 10.203125 -19.671875 Z M 10.203125 -19.671875 "/></g></g></g><g fill="#1e0a3d" fill-opacity="1"><g transform="translate(137.612368, 196.499181)"><g><path d="M 10.203125 -19.671875 C 12.679688 -19.671875 14.710938 -19.171875 16.296875 -18.171875 C 17.890625 -17.171875 18.707031 -15.6875 18.75 -13.71875 L 18.75 -13.375 L 12.9375 -13.375 L 12.9375 -13.5 C 12.9375 -14.050781 12.726562 -14.515625 12.3125 -14.890625 C 11.894531 -15.265625 11.265625 -15.453125 10.421875 -15.453125 C 9.597656 -15.453125 8.96875 -15.332031 8.53125 -15.09375 C 8.09375 -14.851562 7.875 -14.550781 7.875 -14.1875 C 7.875 -13.6875 8.171875 -13.3125 8.765625 -13.0625 C 9.367188 -12.820312 10.335938 -12.570312 11.671875 -12.3125 C 13.222656 -11.988281 14.5 -11.65625 15.5 -11.3125 C 16.5 -10.96875 17.375 -10.398438 18.125 -9.609375 C 18.875 -8.828125 19.257812 -7.757812 19.28125 -6.40625 C 19.28125 -4.125 18.503906 -2.425781 16.953125 -1.3125 C 15.410156 -0.207031 13.347656 0.34375 10.765625 0.34375 C 7.742188 0.34375 5.394531 -0.160156 3.71875 -1.171875 C 2.039062 -2.191406 1.203125 -3.984375 1.203125 -6.546875 L 7.078125 -6.546875 C 7.078125 -5.578125 7.328125 -4.925781 7.828125 -4.59375 C 8.335938 -4.269531 9.128906 -4.109375 10.203125 -4.109375 C 10.992188 -4.109375 11.644531 -4.191406 12.15625 -4.359375 C 12.675781 -4.523438 12.9375 -4.867188 12.9375 -5.390625 C 12.9375 -5.859375 12.648438 -6.207031 12.078125 -6.4375 C 11.503906 -6.675781 10.570312 -6.929688 9.28125 -7.203125 C 7.707031 -7.535156 6.40625 -7.882812 5.375 -8.25 C 4.34375 -8.613281 3.441406 -9.21875 2.671875 -10.0625 C 1.898438 -10.90625 1.515625 -12.050781 1.515625 -13.5 C 1.515625 -15.613281 2.332031 -17.171875 3.96875 -18.171875 C 5.613281 -19.171875 7.691406 -19.671875 10.203125 -19.671875 Z M 10.203125 -19.671875 "/></g></g></g><g fill="#1e0a3d" fill-opacity="1"><g transform="translate(157.901654, 196.499181)"><g/></g></g><g fill="#1e0a3d" fill-opacity="1"><g transform="translate(167.259453, 196.499181)"><g><path d="M 11.6875 -19.671875 C 15.03125 -19.671875 17.609375 -18.816406 19.421875 -17.109375 C 21.242188 -15.410156 22.15625 -12.929688 22.15625 -9.671875 C 22.15625 -6.410156 21.242188 -3.925781 19.421875 -2.21875 C 17.609375 -0.507812 15.03125 0.34375 11.6875 0.34375 C 8.351562 0.34375 5.78125 -0.503906 3.96875 -2.203125 C 2.164062 -3.898438 1.265625 -6.390625 1.265625 -9.671875 C 1.265625 -12.953125 2.164062 -15.4375 3.96875 -17.125 C 5.78125 -18.820312 8.351562 -19.671875 11.6875 -19.671875 Z M 11.6875 -15.03125 C 10.363281 -15.03125 9.351562 -14.628906 8.65625 -13.828125 C 7.96875 -13.023438 7.625 -11.9375 7.625 -10.5625 L 7.625 -8.765625 C 7.625 -7.398438 7.96875 -6.3125 8.65625 -5.5 C 9.351562 -4.695312 10.363281 -4.296875 11.6875 -4.296875 C 13.019531 -4.296875 14.035156 -4.695312 14.734375 -5.5 C 15.441406 -6.3125 15.796875 -7.398438 15.796875 -8.765625 L 15.796875 -10.5625 C 15.796875 -11.9375 15.441406 -13.023438 14.734375 -13.828125 C 14.035156 -14.628906 13.019531 -15.03125 11.6875 -15.03125 Z M 11.6875 -15.03125 "/></g></g></g><g fill="#1e0a3d" fill-opacity="1"><g transform="translate(190.66801, 196.499181)"><g><path d="M 15.90625 0 L 7.78125 -9.390625 L 7.78125 0 L 2.078125 0 L 2.078125 -19.34375 L 7.5 -19.34375 L 15.625 -9.8125 L 15.625 -19.34375 L 21.328125 -19.34375 L 21.328125 0 Z M 15.90625 0 "/></g></g></g><g fill="#1e0a3d" fill-opacity="1"><g transform="translate(214.076567, 196.499181)"><g><path d="M 2.078125 -19.34375 L 18.8125 -19.34375 L 18.8125 -14.703125 L 8.296875 -14.703125 L 8.296875 -12.03125 L 17.28125 -12.03125 L 17.28125 -7.59375 L 8.296875 -7.59375 L 8.296875 -4.640625 L 19 -4.640625 L 19 0 L 2.078125 0 Z M 2.078125 -19.34375 "/></g></g></g><g fill="#1e0a3d" fill-opacity="1"><g transform="translate(234.365852, 196.499181)"><g/></g></g><g fill="#1e0a3d" fill-opacity="1"><g transform="translate(243.723651, 196.499181)"><g><path d="M 13.21875 -14.390625 L 13.21875 0 L 7 0 L 7 -14.390625 L 0.640625 -14.390625 L 0.640625 -19.34375 L 19.53125 -19.34375 L 19.53125 -14.390625 Z M 13.21875 -14.390625 "/></g></g></g><g fill="#1e0a3d" fill-opacity="1"><g transform="translate(264.012937, 196.499181)"><g><path d="M 11.6875 -19.671875 C 15.03125 -19.671875 17.609375 -18.816406 19.421875 -17.109375 C 21.242188 -15.410156 22.15625 -12.929688 22.15625 -9.671875 C 22.15625 -6.410156 21.242188 -3.925781 19.421875 -2.21875 C 17.609375 -0.507812 15.03125 0.34375 11.6875 0.34375 C 8.351562 0.34375 5.78125 -0.503906 3.96875 -2.203125 C 2.164062 -3.898438 1.265625 -6.390625 1.265625 -9.671875 C 1.265625 -12.953125 2.164062 -15.4375 3.96875 -17.125 C 5.78125 -18.820312 8.351562 -19.671875 11.6875 -19.671875 Z M 11.6875 -15.03125 C 10.363281 -15.03125 9.351562 -14.628906 8.65625 -13.828125 C 7.96875 -13.023438 7.625 -11.9375 7.625 -10.5625 L 7.625 -8.765625 C 7.625 -7.398438 7.96875 -6.3125 8.65625 -5.5 C 9.351562 -4.695312 10.363281 -4.296875 11.6875 -4.296875 C 13.019531 -4.296875 14.035156 -4.695312 14.734375 -5.5 C 15.441406 -6.3125 15.796875 -7.398438 15.796875 -8.765625 L 15.796875 -10.5625 C 15.796875 -11.9375 15.441406 -13.023438 14.734375 -13.828125 C 14.035156 -14.628906 13.019531 -15.03125 11.6875 -15.03125 Z M 11.6875 -15.03125 "/></g></g></g><g fill="#1e0a3d" fill-opacity="1"><g transform="translate(287.421494, 196.499181)"><g><path d="M 21.328125 -7.78125 C 21.328125 -5.144531 20.492188 -3.128906 18.828125 -1.734375 C 17.160156 -0.347656 14.789062 0.34375 11.71875 0.34375 C 8.644531 0.34375 6.269531 -0.347656 4.59375 -1.734375 C 2.914062 -3.128906 2.078125 -5.144531 2.078125 -7.78125 L 2.078125 -19.34375 L 8.296875 -19.34375 L 8.296875 -7.875 C 8.296875 -6.78125 8.582031 -5.910156 9.15625 -5.265625 C 9.738281 -4.617188 10.582031 -4.296875 11.6875 -4.296875 C 12.800781 -4.296875 13.648438 -4.625 14.234375 -5.28125 C 14.828125 -5.9375 15.125 -6.800781 15.125 -7.875 L 15.125 -19.34375 L 21.328125 -19.34375 Z M 21.328125 -7.78125 "/></g></g></g><g fill="#1e0a3d" fill-opacity="1"><g transform="translate(310.830051, 196.499181)"><g><path d="M 11.296875 -19.671875 C 14.160156 -19.671875 16.425781 -18.953125 18.09375 -17.515625 C 19.769531 -16.085938 20.609375 -14.046875 20.609375 -11.390625 L 14.671875 -11.390625 C 14.671875 -12.515625 14.375 -13.398438 13.78125 -14.046875 C 13.195312 -14.703125 12.359375 -15.03125 11.265625 -15.03125 C 10.015625 -15.03125 9.09375 -14.632812 8.5 -13.84375 C 7.914062 -13.0625 7.625 -11.96875 7.625 -10.5625 L 7.625 -8.765625 C 7.625 -7.378906 7.914062 -6.285156 8.5 -5.484375 C 9.09375 -4.691406 10 -4.296875 11.21875 -4.296875 C 12.414062 -4.296875 13.320312 -4.601562 13.9375 -5.21875 C 14.5625 -5.84375 14.875 -6.71875 14.875 -7.84375 L 20.609375 -7.84375 C 20.609375 -5.195312 19.796875 -3.171875 18.171875 -1.765625 C 16.546875 -0.359375 14.253906 0.34375 11.296875 0.34375 C 8.003906 0.34375 5.507812 -0.5 3.8125 -2.1875 C 2.113281 -3.875 1.265625 -6.367188 1.265625 -9.671875 C 1.265625 -12.960938 2.113281 -15.453125 3.8125 -17.140625 C 5.507812 -18.828125 8.003906 -19.671875 11.296875 -19.671875 Z M 11.296875 -19.671875 "/></g></g></g><g fill="#1e0a3d" fill-opacity="1"><g transform="translate(332.693002, 196.499181)"><g><path d="M 15.125 0 L 15.125 -7.34375 L 8.296875 -7.34375 L 8.296875 0 L 2.078125 0 L 2.078125 -19.34375 L 8.296875 -19.34375 L 8.296875 -12.28125 L 15.125 -12.28125 L 15.125 -19.34375 L 21.328125 -19.34375 L 21.328125 0 Z M 15.125 0 "/></g></g></g><g fill="#ed1249" fill-opacity="1"><g transform="translate(125.467071, 216.35707)"><g><path d="M 4.828125 -9.3125 C 6.003906 -9.3125 6.96875 -9.070312 7.71875 -8.59375 C 8.476562 -8.125 8.863281 -7.425781 8.875 -6.5 L 8.875 -6.34375 L 6.125 -6.34375 L 6.125 -6.390625 C 6.125 -6.660156 6.023438 -6.882812 5.828125 -7.0625 C 5.628906 -7.238281 5.332031 -7.328125 4.9375 -7.328125 C 4.550781 -7.328125 4.253906 -7.265625 4.046875 -7.140625 C 3.835938 -7.023438 3.734375 -6.882812 3.734375 -6.71875 C 3.734375 -6.476562 3.875 -6.300781 4.15625 -6.1875 C 4.4375 -6.070312 4.894531 -5.953125 5.53125 -5.828125 C 6.257812 -5.679688 6.859375 -5.523438 7.328125 -5.359375 C 7.804688 -5.191406 8.222656 -4.921875 8.578125 -4.546875 C 8.941406 -4.179688 9.125 -3.675781 9.125 -3.03125 C 9.125 -1.945312 8.757812 -1.144531 8.03125 -0.625 C 7.300781 -0.101562 6.320312 0.15625 5.09375 0.15625 C 3.664062 0.15625 2.554688 -0.0820312 1.765625 -0.5625 C 0.972656 -1.039062 0.578125 -1.890625 0.578125 -3.109375 L 3.359375 -3.109375 C 3.359375 -2.640625 3.476562 -2.328125 3.71875 -2.171875 C 3.957031 -2.015625 4.328125 -1.9375 4.828125 -1.9375 C 5.203125 -1.9375 5.507812 -1.976562 5.75 -2.0625 C 6 -2.144531 6.125 -2.3125 6.125 -2.5625 C 6.125 -2.78125 5.988281 -2.941406 5.71875 -3.046875 C 5.445312 -3.160156 5.003906 -3.28125 4.390625 -3.40625 C 3.648438 -3.5625 3.035156 -3.726562 2.546875 -3.90625 C 2.054688 -4.082031 1.628906 -4.367188 1.265625 -4.765625 C 0.898438 -5.160156 0.71875 -5.703125 0.71875 -6.390625 C 0.71875 -7.390625 1.101562 -8.125 1.875 -8.59375 C 2.65625 -9.070312 3.640625 -9.3125 4.828125 -9.3125 Z M 4.828125 -9.3125 "/></g></g></g><g fill="#ed1249" fill-opacity="1"><g transform="translate(137.0758, 216.35707)"><g><path d="M 5.53125 -9.3125 C 7.113281 -9.3125 8.332031 -8.90625 9.1875 -8.09375 C 10.050781 -7.289062 10.484375 -6.117188 10.484375 -4.578125 C 10.484375 -3.035156 10.050781 -1.859375 9.1875 -1.046875 C 8.332031 -0.242188 7.113281 0.15625 5.53125 0.15625 C 3.957031 0.15625 2.738281 -0.242188 1.875 -1.046875 C 1.019531 -1.847656 0.59375 -3.023438 0.59375 -4.578125 C 0.59375 -6.128906 1.019531 -7.304688 1.875 -8.109375 C 2.738281 -8.910156 3.957031 -9.3125 5.53125 -9.3125 Z M 5.53125 -7.125 C 4.90625 -7.125 4.425781 -6.929688 4.09375 -6.546875 C 3.769531 -6.171875 3.609375 -5.65625 3.609375 -5 L 3.609375 -4.15625 C 3.609375 -3.507812 3.769531 -2.992188 4.09375 -2.609375 C 4.425781 -2.222656 4.90625 -2.03125 5.53125 -2.03125 C 6.164062 -2.03125 6.648438 -2.222656 6.984375 -2.609375 C 7.316406 -2.992188 7.484375 -3.507812 7.484375 -4.15625 L 7.484375 -5 C 7.484375 -5.65625 7.316406 -6.171875 6.984375 -6.546875 C 6.648438 -6.929688 6.164062 -7.125 5.53125 -7.125 Z M 5.53125 -7.125 "/></g></g></g><g fill="#ed1249" fill-opacity="1"><g transform="translate(150.162212, 216.35707)"><g><path d="M 0.984375 -9.15625 L 3.921875 -9.15625 L 3.921875 -2.34375 L 8.625 -2.34375 L 8.625 0 L 0.984375 0 Z M 0.984375 -9.15625 "/></g></g></g><g fill="#ed1249" fill-opacity="1"><g transform="translate(161.038748, 216.35707)"><g><path d="M 10.109375 -3.6875 C 10.109375 -2.4375 9.710938 -1.484375 8.921875 -0.828125 C 8.128906 -0.171875 7.003906 0.15625 5.546875 0.15625 C 4.097656 0.15625 2.972656 -0.171875 2.171875 -0.828125 C 1.378906 -1.484375 0.984375 -2.4375 0.984375 -3.6875 L 0.984375 -9.15625 L 3.921875 -9.15625 L 3.921875 -3.734375 C 3.921875 -3.210938 4.054688 -2.796875 4.328125 -2.484375 C 4.609375 -2.179688 5.007812 -2.03125 5.53125 -2.03125 C 6.0625 -2.03125 6.460938 -2.1875 6.734375 -2.5 C 7.015625 -2.8125 7.15625 -3.222656 7.15625 -3.734375 L 7.15625 -9.15625 L 10.109375 -9.15625 Z M 10.109375 -3.6875 "/></g></g></g><g fill="#ed1249" fill-opacity="1"><g transform="translate(174.12516, 216.35707)"><g><path d="M 6.25 -6.8125 L 6.25 0 L 3.3125 0 L 3.3125 -6.8125 L 0.3125 -6.8125 L 0.3125 -9.15625 L 9.25 -9.15625 L 9.25 -6.8125 Z M 6.25 -6.8125 "/></g></g></g><g fill="#ed1249" fill-opacity="1"><g transform="translate(185.733886, 216.35707)"><g><path d="M 1.125 0 L 1.125 -9.15625 L 4.0625 -9.15625 L 4.0625 0 Z M 1.125 0 "/></g></g></g><g fill="#ed1249" fill-opacity="1"><g transform="translate(192.909537, 216.35707)"><g><path d="M 5.53125 -9.3125 C 7.113281 -9.3125 8.332031 -8.90625 9.1875 -8.09375 C 10.050781 -7.289062 10.484375 -6.117188 10.484375 -4.578125 C 10.484375 -3.035156 10.050781 -1.859375 9.1875 -1.046875 C 8.332031 -0.242188 7.113281 0.15625 5.53125 0.15625 C 3.957031 0.15625 2.738281 -0.242188 1.875 -1.046875 C 1.019531 -1.847656 0.59375 -3.023438 0.59375 -4.578125 C 0.59375 -6.128906 1.019531 -7.304688 1.875 -8.109375 C 2.738281 -8.910156 3.957031 -9.3125 5.53125 -9.3125 Z M 5.53125 -7.125 C 4.90625 -7.125 4.425781 -6.929688 4.09375 -6.546875 C 3.769531 -6.171875 3.609375 -5.65625 3.609375 -5 L 3.609375 -4.15625 C 3.609375 -3.507812 3.769531 -2.992188 4.09375 -2.609375 C 4.425781 -2.222656 4.90625 -2.03125 5.53125 -2.03125 C 6.164062 -2.03125 6.648438 -2.222656 6.984375 -2.609375 C 7.316406 -2.992188 7.484375 -3.507812 7.484375 -4.15625 L 7.484375 -5 C 7.484375 -5.65625 7.316406 -6.171875 6.984375 -6.546875 C 6.648438 -6.929688 6.164062 -7.125 5.53125 -7.125 Z M 5.53125 -7.125 "/></g></g></g><g fill="#ed1249" fill-opacity="1"><g transform="translate(205.995947, 216.35707)"><g><path d="M 7.53125 0 L 3.6875 -4.453125 L 3.6875 0 L 0.984375 0 L 0.984375 -9.15625 L 3.546875 -9.15625 L 7.40625 -4.640625 L 7.40625 -9.15625 L 10.109375 -9.15625 L 10.109375 0 Z M 7.53125 0 "/></g></g></g><g fill="#ed1249" fill-opacity="1"><g transform="translate(219.082356, 216.35707)"><g><path d="M 4.828125 -9.3125 C 6.003906 -9.3125 6.96875 -9.070312 7.71875 -8.59375 C 8.476562 -8.125 8.863281 -7.425781 8.875 -6.5 L 8.875 -6.34375 L 6.125 -6.34375 L 6.125 -6.390625 C 6.125 -6.660156 6.023438 -6.882812 5.828125 -7.0625 C 5.628906 -7.238281 5.332031 -7.328125 4.9375 -7.328125 C 4.550781 -7.328125 4.253906 -7.265625 4.046875 -7.140625 C 3.835938 -7.023438 3.734375 -6.882812 3.734375 -6.71875 C 3.734375 -6.476562 3.875 -6.300781 4.15625 -6.1875 C 4.4375 -6.070312 4.894531 -5.953125 5.53125 -5.828125 C 6.257812 -5.679688 6.859375 -5.523438 7.328125 -5.359375 C 7.804688 -5.191406 8.222656 -4.921875 8.578125 -4.546875 C 8.941406 -4.179688 9.125 -3.675781 9.125 -3.03125 C 9.125 -1.945312 8.757812 -1.144531 8.03125 -0.625 C 7.300781 -0.101562 6.320312 0.15625 5.09375 0.15625 C 3.664062 0.15625 2.554688 -0.0820312 1.765625 -0.5625 C 0.972656 -1.039062 0.578125 -1.890625 0.578125 -3.109375 L 3.359375 -3.109375 C 3.359375 -2.640625 3.476562 -2.328125 3.71875 -2.171875 C 3.957031 -2.015625 4.328125 -1.9375 4.828125 -1.9375 C 5.203125 -1.9375 5.507812 -1.976562 5.75 -2.0625 C 6 -2.144531 6.125 -2.3125 6.125 -2.5625 C 6.125 -2.78125 5.988281 -2.941406 5.71875 -3.046875 C 5.445312 -3.160156 5.003906 -3.28125 4.390625 -3.40625 C 3.648438 -3.5625 3.035156 -3.726562 2.546875 -3.90625 C 2.054688 -4.082031 1.628906 -4.367188 1.265625 -4.765625 C 0.898438 -5.160156 0.71875 -5.703125 0.71875 -6.390625 C 0.71875 -7.390625 1.101562 -8.125 1.875 -8.59375 C 2.65625 -9.070312 3.640625 -9.3125 4.828125 -9.3125 Z M 4.828125 -9.3125 "/></g></g></g><g clip-path="url(#8e72da1af4)"><path fill="#1e0a3d" d="M 85.445312 204.425781 C 79.371094 202.53125 73.023438 201.765625 66.855469 200.171875 C 61.074219 198.628906 54.769531 196.730469 51.066406 191.683594 C 46.371094 184.796875 47.929688 174.574219 54.15625 169.144531 C 59.28125 164.371094 66.613281 162.945312 73.421875 163.269531 C 76.511719 163.542969 79.617188 164.09375 82.480469 165.304688 C 84.175781 165.992188 85.890625 166.910156 87.726562 167.09375 C 88.078125 167.125 88.429688 167.140625 88.796875 167.109375 L 88.8125 167.109375 C 88.949219 167.09375 89.089844 167.078125 89.226562 167.0625 C 89.515625 167.046875 89.808594 167 90.097656 166.941406 L 95.773438 166.222656 C 95.40625 165.195312 94.996094 164.234375 94.519531 163.328125 C 94.304688 162.917969 94.078125 162.503906 93.847656 162.121094 C 93.847656 162.105469 93.832031 162.105469 93.832031 162.089844 C 92.394531 159.6875 90.617188 157.746094 88.660156 156.183594 C 85.613281 153.539062 82.019531 151.5625 78.117188 150.460938 C 77.566406 150.324219 77 150.203125 76.433594 150.09375 C 72.304688 149.085938 68.050781 149.484375 63.84375 149.40625 C 49.75 149.375 35.644531 149.511719 21.550781 149.34375 C 21.492188 164.308594 21.519531 179.289062 21.535156 194.253906 C 21.566406 197.007812 21.398438 199.777344 21.8125 202.515625 C 22.988281 212.597656 30.5625 221.425781 40.15625 224.546875 C 42.007812 225.191406 44.304688 225.910156 46.046875 224.609375 C 47.226562 223.84375 47.898438 222.480469 47.824219 221.089844 C 47.851562 215.71875 47.777344 210.347656 47.824219 204.976562 C 48.96875 204.960938 50.132812 204.933594 51.28125 204.917969 C 52.335938 211.175781 54.492188 218.015625 60.1875 221.5625 C 64.851562 224.347656 70.4375 224.808594 75.746094 224.824219 C 77.949219 224.824219 80.167969 224.59375 82.324219 224.148438 C 83.03125 223.949219 83.734375 223.738281 84.4375 223.507812 C 86.546875 222.789062 88.460938 221.546875 89.976562 219.910156 C 92.652344 216.914062 93.1875 212.183594 91.078125 208.742188 C 89.839844 206.628906 87.621094 205.421875 85.445312 204.425781 Z M 85.445312 204.425781 " fill-opacity="1" fill-rule="nonzero"/></g><g clip-path="url(#056e21a32b)"><path fill="#1e0a3d" d="M 98.023438 185.652344 C 96.785156 185.621094 95.53125 185.605469 94.289062 185.605469 C 93.617188 183.941406 92.945312 182.273438 92.148438 180.664062 C 91.0625 178.539062 89.761719 176.503906 88.199219 174.699219 C 87.191406 173.566406 86.105469 172.511719 84.925781 171.5625 C 80.089844 167.796875 73.636719 166.144531 67.605469 167.339844 C 64.347656 167.921875 61.257812 169.632812 59.238281 172.28125 C 56.957031 175.28125 56.910156 179.914062 59.542969 182.714844 C 62.910156 186.28125 68.035156 187.136719 72.59375 188.207031 C 77.125 189.171875 81.714844 189.84375 86.136719 191.191406 L 88.738281 191.925781 C 88.75 191.925781 88.765625 191.925781 88.78125 191.925781 C 88.859375 191.957031 88.933594 191.972656 89.011719 192.003906 C 89.273438 192.078125 89.515625 192.171875 89.761719 192.261719 C 90.601562 192.585938 91.414062 193.011719 92.226562 193.425781 C 94.367188 194.40625 96.171875 195.921875 97.949219 197.433594 C 98.039062 193.503906 97.933594 189.570312 98.023438 185.652344 Z M 98.023438 185.652344 " fill-opacity="1" fill-rule="nonzero"/></g></svg>